# xmcd
# Track frame offsets:
# 150
# 11918
# 23535
# 40928
# 54128
# 66755
# 80773
# 96868
# 114368
# 123958
# 136148
# 152173
#
# Disc length: 2214 seconds
# Revision: 0
# Processed by: cddbd v1.4PL0 Copyright (c) Steve Scherf et al.
# Submitted via: VisiTrax 2.9.5.180 - For more info visit www.synapsa.com
#
DISCID=9008a40c
DTITLE=Anne Breen - When I grow too old to dream
DYEAR=1900
DGENRE=Irsk
TTITLE0=When I grow too old to dream
TTITLE1=Old main in the garret
TTITLE2=Danny Boy
TTITLE3=Moonshine
TTITLE4=Putting on the style
TTITLE5=My mother's pearls
TTITLE6=Poverty
TTITLE7=Fields of Athenry
TTITLE8=Blackboard of my heart
TTITLE9=Old rugged cross
TTITLE10=Hold me in your arms forever
TTITLE11=The old country waltz
EXTD=
EXTT0=
EXTT1=
EXTT2=
EXTT3=
EXTT4=
EXTT5=
EXTT6=
EXTT7=
EXTT8=
EXTT9=
EXTT10=
EXTT11=
PLAYORDER=
